<svg width="48" height="48" viewBox="0 0 48 48" fill="none" xmlns="http://www.w3.org/2000/svg">
<path d="M10 24H6.73333C5.42655 24 4.77315 24 4.27402 24.2543C3.83498 24.4781 3.47803 24.8349 3.25431 25.274C3 25.7731 3 26.4264 3 27.7333V34.2667C3 35.5736 3 36.2269 3.25431 36.726C3.47803 37.1651 3.83498 37.5219 4.27402 37.7457C4.77315 38 5.42655 38 6.73333 38H10M38 24H41.2667C42.5736 24 43.2269 24 43.726 24.2543C44.1651 24.4781 44.5219 24.8349 44.7457 25.274C45 25.7731 45 26.4264 45 27.7333V34.2667C45 35.5736 45 36.2269 44.7457 36.726C44.5219 37.1651 44.1651 37.5219 43.726 37.7457C43.2269 38 42.5736 38 41.2667 38H38M31 10C31 6.13402 27.8661 3 24 3C20.1339 3 17 6.13402 17 10M19.3333 24H28.6667M21.2 45H26.8C30.7205 45 32.6805 45 34.178 44.237C35.4952 43.5659 36.5659 42.4952 37.237 41.178C38 39.6805 38 37.7205 38 33.8V21.2C38 17.2796 38 15.3194 37.237 13.8221C36.5659 12.5049 35.4952 11.4341 34.178 10.763C32.6805 10 30.7205 10 26.8 10H21.2C17.2796 10 15.3194 10 13.8221 10.763C12.5049 11.4341 11.4341 12.5049 10.763 13.8221C10 15.3194 10 17.2796 10 21.2V33.8C10 37.7205 10 39.6805 10.763 41.178C11.4341 42.4952 12.5049 43.5659 13.8221 44.237C15.3194 45 17.2796 45 21.2 45Z" stroke="black" stroke-width="5.33333" stroke-linecap="round" stroke-linejoin="round"/>
</svg>
