<svg width="36" height="36" viewBox="0 0 36 36" fill="none" xmlns="http://www.w3.org/2000/svg">
<path id="Vector" d="M11.3333 4.15539L33 4.15705M11.3333 18.0016L33 18.0035M11.3333 31.8478L33 31.8496M3.83333 4.15385H3.85M3.83333 18H3.85M3.83333 31.8462H3.85M4.66667 4.15385C4.66667 4.79109 4.29357 5.30769 3.83333 5.30769C3.3731 5.30769 3 4.79109 3 4.15385C3 3.5166 3.3731 3 3.83333 3C4.29357 3 4.66667 3.5166 4.66667 4.15385ZM4.66667 18C4.66667 18.6372 4.29357 19.1538 3.83333 19.1538C3.3731 19.1538 3 18.6372 3 18C3 17.3628 3.3731 16.8462 3.83333 16.8462C4.29357 16.8462 4.66667 17.3628 4.66667 18ZM4.66667 31.8462C4.66667 32.4833 4.29357 33 3.83333 33C3.3731 33 3 32.4833 3 31.8462C3 31.209 3.3731 30.6923 3.83333 30.6923C4.29357 30.6923 4.66667 31.209 4.66667 31.8462Z" stroke="black" stroke-width="5.33333" stroke-linecap="round" stroke-linejoin="round"/>
</svg>
